<?xml version="1.0" encoding="utf-8"?>
<!-- Generator: Adobe Illustrator 25.0.0, SVG Export Plug-In . SVG Version: 6.00 Build 0)  -->
<svg version="1.1" id="Layer_1" xmlns="http://www.w3.org/2000/svg" xmlns:xlink="http://www.w3.org/1999/xlink" x="0px" y="0px"
	 viewBox="0 0 473.99 293.18" style="enable-background:new 0 0 473.99 293.18;" xml:space="preserve">
<style type="text/css">
	.st0{fill:none;stroke:#4193D8;stroke-width:0;stroke-linecap:round;stroke-linejoin:round;}
	.st1{fill:#5CB0EA;}
	.st2{fill:#FFFFFF;}
	.st3{fill:#2B3990;}
</style>
<g>
	<g>
		<path class="st1" d="M282.74,88.15h9.2c-0.76-14.9-6.99-28.35-16.8-38.32l-6.5,6.5C276.79,64.65,281.99,75.78,282.74,88.15z"/>
		<path class="st1" d="M233.11,140.96l0,9.2c15,0,28.64-5.64,39.05-14.86l-6.51-6.51C256.92,136.36,245.58,140.96,233.11,140.96z"/>
		<path class="st1" d="M233.11,32.2v9.2c12.17,0,23.28,4.37,31.93,11.61l6.51-6.51C261.22,37.62,247.81,32.2,233.11,32.2z"/>
		<path class="st1" d="M282.8,93.04c-0.47,12.54-5.53,23.86-13.61,32.37l6.51,6.51c9.73-10.17,15.83-23.8,16.3-38.87H282.8z"/>
	</g>
	<g>
		<path class="st2" d="M283.5,139.13c-12.75,13.47-30.72,21.84-50.72,21.85c-19.3,0-36.7-7.8-49.35-20.44
			c-12.64-12.65-20.44-30.06-20.44-49.35c0-19.3,7.8-36.7,20.44-49.35c12.65-12.64,30.06-20.44,49.35-20.44
			c19.21,0,36.55,7.73,49.19,20.28l9.9-9.97c-15.14-15.05-36.06-24.37-59.1-24.36c-23.13,0-44.14,9.4-59.29,24.56
			c-15.16,15.15-24.56,36.16-24.56,59.29c0,23.13,9.4,44.14,24.56,59.29c15.15,15.16,36.16,24.56,59.29,24.56
			c23.98,0,45.67-10.1,60.93-26.25L283.5,139.13L283.5,139.13z"/>
	</g>
	<g>
		<g>
			<path class="st2" d="M44.09,215.36c-10.78,0-18.85,2.93-24.21,8.8c-5.36,5.87-8.03,14.6-8.03,26.19c0,11.8,2.71,20.58,8.14,26.35
				c5.42,5.76,13.46,8.65,24.11,8.65c2.37,0,4.78-0.19,7.22-0.56c2.44-0.38,4.85-0.93,7.22-1.68c2.37-0.74,4.58-1.62,6.61-2.64
				v-10.07c-3.32,1.9-6.61,3.31-9.87,4.22c-3.25,0.92-6.41,1.38-9.46,1.38c-5.09,0-9.27-0.86-12.56-2.59
				c-3.29-1.73-5.75-4.48-7.37-8.24c-1.63-3.76-2.44-8.66-2.44-14.7c0-6.17,0.8-11.12,2.39-14.85c1.59-3.73,4.03-6.47,7.32-8.24
				c3.29-1.76,7.41-2.64,12.36-2.64c3.19,0,6.42,0.46,9.71,1.37c3.29,0.92,6.59,2.36,9.92,4.32v-10.07
				c-3.32-1.56-6.76-2.78-10.32-3.66C51.26,215.8,47.69,215.36,44.09,215.36z"/>
			<path class="st2" d="M115.85,237.58c-1.32-1.32-2.83-2.37-4.53-3.15c-1.7-0.78-3.51-1.35-5.44-1.73
				c-1.93-0.37-3.85-0.56-5.75-0.56c-3.87,0-7.61,0.39-11.24,1.17c-3.63,0.78-6.39,1.82-8.29,3.1v9.97c1.96-1.63,4.47-2.9,7.53-3.81
				c3.05-0.92,6-1.37,8.85-1.37c4,0,7.08,0.83,9.26,2.49c2.17,1.66,3.26,4.29,3.26,7.88v4.83c-0.79-0.47-1.64-0.91-2.59-1.33
				c-1.66-0.71-3.53-1.27-5.59-1.68c-2.07-0.41-4.39-0.61-6.97-0.61c-3.87,0-7.19,0.61-9.97,1.83c-2.78,1.22-4.92,3.05-6.41,5.49
				c-1.49,2.44-2.24,5.56-2.24,9.36c0,3.19,0.59,5.85,1.78,7.99c1.19,2.14,2.78,3.81,4.78,5.03c2,1.22,4.22,2.09,6.66,2.59
				c2.44,0.51,4.98,0.76,7.63,0.76c4.48,0,8.48-0.32,12-0.97c3.53-0.64,6.32-1.86,8.39-3.66c2.07-1.8,3.1-4.36,3.1-7.68v-24.41
				c0-2.58-0.37-4.82-1.12-6.71C118.21,240.52,117.18,238.91,115.85,237.58z M106.65,276.69c-1.9,0.54-4.85,0.81-8.85,0.81
				c-1.9,0-3.71-0.29-5.44-0.86c-1.73-0.57-3.17-1.49-4.32-2.74c-1.15-1.25-1.73-2.9-1.73-4.93c0-2.71,1-4.75,3-6.1
				c2-1.36,4.93-2.03,8.8-2.03c2.91,0,5.63,0.35,8.14,1.07c1.2,0.34,2.29,0.72,3.26,1.13v9.9
				C109.5,274.9,108.55,276.15,106.65,276.69z"/>
			<path class="st2" d="M164.83,258.59c-1.56-1.09-3.26-1.92-5.09-2.49c-1.83-0.58-3.6-1.14-5.29-1.68
				c-1.83-0.54-3.54-1.08-5.14-1.62c-1.59-0.54-2.88-1.29-3.87-2.24c-0.98-0.95-1.48-2.24-1.48-3.87c0-1.9,0.88-3.34,2.64-4.32
				c1.76-0.98,3.97-1.48,6.61-1.48c2.85,0,5.36,0.48,7.53,1.42c2.17,0.95,4.47,2.07,6.92,3.36l-0.1-9.15
				c-2.17-1.15-4.39-2.14-6.66-2.95c-2.27-0.82-5.21-1.26-8.8-1.32c-2.17,0-4.39,0.29-6.66,0.86c-2.27,0.58-4.34,1.49-6.21,2.75
				c-1.86,1.26-3.37,2.88-4.53,4.88c-1.15,2-1.73,4.43-1.73,7.27c0,2.58,0.46,4.75,1.37,6.51c0.92,1.77,2.14,3.21,3.66,4.32
				c1.52,1.12,3.2,2,5.03,2.65c1.83,0.64,3.66,1.2,5.49,1.68c1.76,0.61,3.46,1.22,5.09,1.83c1.63,0.61,2.97,1.36,4.02,2.24
				c1.05,0.88,1.58,2.1,1.58,3.66c0,1.83-0.83,3.36-2.49,4.58c-1.66,1.22-3.95,1.83-6.87,1.83c-2.31,0-4.39-0.24-6.25-0.71
				c-1.87-0.47-3.65-1.14-5.34-1.98c-1.7-0.85-3.43-1.81-5.19-2.9v10.07c2.44,1.15,4.93,2.12,7.48,2.9
				c2.54,0.78,5.64,1.17,9.31,1.17c3.32,0,6.54-0.54,9.66-1.63c3.12-1.08,5.65-2.81,7.58-5.19c1.93-2.37,2.93-5.46,3-9.26
				c0-2.85-0.49-5.15-1.47-6.91C167.66,261.1,166.39,259.67,164.83,258.59z"/>
			<path class="st2" d="M225.3,240.84c-1.59-3.02-3.82-5.22-6.66-6.61c-2.85-1.39-6.27-2.08-10.28-2.08c-3.05,0-6.19,0.56-9.41,1.68
				c-2,0.69-3.87,1.54-5.65,2.51V211.7h-10.68v72.63h10.58l0.1-39.67c1.83-1.02,3.78-1.83,5.85-2.44c2.07-0.61,4.12-0.91,6.15-0.91
				c3.87,0,6.78,1.08,8.75,3.25c1.96,2.17,2.95,5.32,2.95,9.46v30.31h10.68v-31.63C227.69,247.81,226.89,243.86,225.3,240.84z"/>
		</g>
		<path class="st1" d="M243.25,284.32v-67.84h23.8c10.98,0,19.15,2.85,24.51,8.54c5.36,5.7,8.04,14.14,8.04,25.33
			c0,11.19-2.68,19.65-8.04,25.38c-5.36,5.73-13.53,8.6-24.51,8.6H243.25z M254.44,274.86h11.49c7.59,0,13.19-1.95,16.78-5.85
			c3.59-3.9,5.39-10.12,5.39-18.67c0-8.48-1.8-14.68-5.39-18.61c-3.59-3.93-9.19-5.9-16.78-5.9h-11.49V274.86z"/>
		<path class="st1" d="M331.03,285.85c-2.65,0-5.19-0.26-7.63-0.76c-2.44-0.51-4.67-1.37-6.66-2.59c-2-1.22-3.6-2.9-4.78-5.03
			c-1.19-2.14-1.78-4.8-1.78-7.99c0-3.8,0.74-6.91,2.24-9.36c1.49-2.44,3.63-4.27,6.41-5.49c2.78-1.22,6.1-1.83,9.97-1.83
			c2.58,0,4.9,0.2,6.97,0.61c2.06,0.41,3.93,0.97,5.59,1.68c1.66,0.71,3.07,1.51,4.22,2.39l1.12,7.02c-1.49-1.02-3.49-1.88-6-2.59
			c-2.51-0.71-5.22-1.07-8.14-1.07c-3.87,0-6.8,0.68-8.8,2.03s-3,3.39-3,6.1c0,2.03,0.58,3.68,1.73,4.93
			c1.15,1.26,2.59,2.17,4.32,2.74c1.73,0.58,3.54,0.86,5.44,0.86c4,0,6.95-0.27,8.85-0.81c1.9-0.54,2.85-1.8,2.85-3.76v-21.36
			c0-3.59-1.08-6.22-3.25-7.88c-2.17-1.66-5.26-2.49-9.26-2.49c-2.85,0-5.8,0.46-8.85,1.37c-3.05,0.91-5.56,2.18-7.53,3.81v-9.97
			c1.9-1.29,4.66-2.32,8.29-3.1s7.37-1.17,11.24-1.17c1.9,0,3.82,0.19,5.75,0.56c1.93,0.37,3.75,0.95,5.44,1.73
			c1.7,0.78,3.2,1.83,4.53,3.15s2.36,2.94,3.1,4.83c0.74,1.9,1.12,4.14,1.12,6.71v24.41c0,3.32-1.03,5.88-3.1,7.68
			c-2.07,1.8-4.87,3.02-8.39,3.66C339.51,285.53,335.51,285.85,331.03,285.85z"/>
		<path class="st1" d="M384.33,285.85c-3.66,0-6.76-0.39-9.31-1.17c-2.54-0.78-5.03-1.74-7.47-2.9v-10.07
			c1.76,1.09,3.49,2.05,5.19,2.9c1.69,0.85,3.47,1.51,5.34,1.98c1.86,0.47,3.95,0.71,6.26,0.71c2.91,0,5.2-0.61,6.87-1.83
			c1.66-1.22,2.49-2.74,2.49-4.58c0-1.56-0.52-2.78-1.58-3.66c-1.05-0.88-2.39-1.63-4.02-2.24c-1.63-0.61-3.32-1.22-5.09-1.83
			c-1.83-0.47-3.66-1.03-5.49-1.68c-1.83-0.65-3.51-1.53-5.03-2.65c-1.53-1.12-2.74-2.56-3.66-4.32c-0.91-1.76-1.37-3.93-1.37-6.51
			c0-2.85,0.58-5.27,1.73-7.27c1.15-2,2.66-3.63,4.53-4.88c1.86-1.25,3.93-2.17,6.2-2.74c2.27-0.58,4.49-0.86,6.66-0.86
			c3.59,0.07,6.52,0.51,8.8,1.32c2.27,0.81,4.49,1.8,6.66,2.95l0.1,9.16c-2.44-1.29-4.75-2.41-6.92-3.36
			c-2.17-0.95-4.68-1.42-7.53-1.42c-2.64,0-4.85,0.49-6.61,1.48c-1.76,0.98-2.64,2.42-2.64,4.32c0,1.63,0.49,2.92,1.47,3.87
			c0.98,0.95,2.27,1.7,3.87,2.24c1.59,0.54,3.31,1.08,5.14,1.62c1.7,0.54,3.46,1.1,5.29,1.68s3.52,1.41,5.08,2.49
			c1.56,1.08,2.83,2.51,3.82,4.27c0.98,1.76,1.47,4.07,1.47,6.91c-0.07,3.8-1.07,6.88-3,9.26c-1.93,2.38-4.46,4.11-7.58,5.19
			C390.88,285.3,387.65,285.85,384.33,285.85z"/>
		<path class="st1" d="M417.09,284.32V211.7h10.68v29.19l-3.15-2.64c2.64-1.83,5.58-3.31,8.8-4.43c3.22-1.12,6.36-1.68,9.41-1.68
			c4,0,7.43,0.7,10.28,2.08c2.85,1.39,5.07,3.6,6.66,6.61c1.59,3.02,2.39,6.97,2.39,11.85v31.63h-10.68v-30.31
			c0-4.14-0.98-7.29-2.95-9.46c-1.97-2.17-4.88-3.25-8.75-3.25c-2.03,0-4.09,0.3-6.15,0.91c-2.07,0.61-4.02,1.42-5.85,2.44
			l-0.1,39.67H417.09z"/>
	</g>
	<path class="st1" d="M238.05,83.83l-4.19-31.93l-3.33,32.3c-2.84,1.49-4.77,4.47-4.77,7.9c0,3.45,1.96,6.44,4.83,7.93l4.37,33.37
		l3.42-33.18c3.08-1.41,5.23-4.51,5.23-8.12C243.62,88.36,241.32,85.16,238.05,83.83z M234.69,96.06c-2.19,0-3.96-1.77-3.96-3.96
		c0-2.19,1.77-3.96,3.96-3.96c2.19,0,3.96,1.77,3.96,3.96C238.65,94.29,236.88,96.06,234.69,96.06z"/>
</g>
</svg>
