<?xml version="1.0" encoding="utf-8"?>
<!-- Generator: Adobe Illustrator 25.0.0, SVG Export Plug-In . SVG Version: 6.00 Build 0)  -->
<svg version="1.1" id="Layer_1" xmlns="http://www.w3.org/2000/svg" xmlns:xlink="http://www.w3.org/1999/xlink" x="0px" y="0px"
	 viewBox="0 0 171.17 186" style="enable-background:new 0 0 171.17 186;" xml:space="preserve">
<style type="text/css">
	.st0{fill:none;stroke:#4193D8;stroke-width:0;stroke-linecap:round;stroke-linejoin:round;}
	.st1{fill:#5CB0EA;}
	.st2{fill:#FFFFFF;}
	.st3{fill:#5CB0EA;}
</style>
<g>
	<g>
		<path class="st1" d="M147,89.97h9.2c-0.76-14.9-6.99-28.35-16.8-38.32l-6.5,6.5C141.05,66.48,146.25,77.6,147,89.97z"/>
		<path class="st1" d="M97.37,142.78l0,9.2c15,0,28.64-5.64,39.05-14.86l-6.51-6.51C121.18,138.18,109.84,142.78,97.37,142.78z"/>
		<path class="st1" d="M97.37,34.02v9.2c12.17,0,23.28,4.37,31.93,11.61l6.51-6.51C125.48,39.44,112.07,34.03,97.37,34.02z"/>
		<path class="st1" d="M147.06,94.86c-0.47,12.54-5.53,23.86-13.61,32.37l6.51,6.51c9.73-10.17,15.83-23.8,16.3-38.87H147.06z"/>
	</g>
	<g>
		<path class="st3" d="M147.77,140.95c-12.75,13.47-30.72,21.84-50.72,21.85c-19.3,0-36.7-7.8-49.35-20.44
			C35.05,129.7,27.25,112.3,27.25,93c0-19.3,7.8-36.7,20.44-49.35C60.34,31.01,77.75,23.21,97.05,23.2
			c19.21,0,36.55,7.73,49.19,20.28l9.9-9.97C141,18.47,120.08,9.15,97.05,9.15c-23.13,0-44.14,9.4-59.29,24.56
			C22.59,48.86,13.19,69.87,13.19,93c0,23.13,9.4,44.14,24.56,59.29c15.15,15.16,36.16,24.56,59.29,24.56
			c23.98,0,45.67-10.1,60.93-26.25L147.77,140.95L147.77,140.95z"/>
	</g>
	<path class="st1" d="M102.32,85.65l-4.19-31.93l-3.33,32.3c-2.84,1.49-4.77,4.47-4.77,7.9c0,3.45,1.96,6.44,4.83,7.93l4.37,33.37
		l3.42-33.18c3.08-1.41,5.23-4.51,5.23-8.12C107.88,90.18,105.58,86.98,102.32,85.65z M98.95,97.88c-2.19,0-3.96-1.77-3.96-3.96
		c0-2.19,1.77-3.96,3.96-3.96c2.19,0,3.96,1.77,3.96,3.96C102.91,96.11,101.14,97.88,98.95,97.88z"/>
</g>
</svg>
