<?xml version="1.0" encoding="utf-8"?>
<!-- Generator: Adobe Illustrator 25.0.0, SVG Export Plug-In . SVG Version: 6.00 Build 0)  -->
<svg version="1.1" id="Layer_1" xmlns="http://www.w3.org/2000/svg" xmlns:xlink="http://www.w3.org/1999/xlink" x="0px" y="0px"
	 viewBox="0 0 473.99 293.18" style="enable-background:new 0 0 473.99 293.18;" xml:space="preserve">
<style type="text/css">
	.st0{fill:none;stroke:#4193D8;stroke-width:0;stroke-linecap:round;stroke-linejoin:round;}
	.st1{fill:#5CB0EA;}
	.st2{fill:#FFFFFF;}
	.st3{fill:#2B3990;}
</style>
<g>
	<g>
		<path class="st1" d="M280.33,91.25h8.72c-0.72-14.12-6.62-26.86-15.91-36.3l-6.16,6.16C274.7,68.99,279.63,79.53,280.33,91.25z"/>
		<path class="st1" d="M233.32,141.28l0,8.72c14.21,0,27.14-5.35,36.99-14.08l-6.16-6.16C255.87,136.92,245.13,141.28,233.32,141.28
			z"/>
		<path class="st1" d="M233.32,38.25v8.72c11.53,0,22.06,4.14,30.25,11l6.16-6.16C259.95,43.37,247.25,38.25,233.32,38.25z"/>
		<path class="st1" d="M280.39,95.88c-0.44,11.88-5.24,22.6-12.89,30.67l6.16,6.16c9.22-9.63,14.99-22.55,15.44-36.83H280.39z"/>
	</g>
	<g>
		<path class="st2" d="M281.06,139.55c-38.8,43.17-115.51,13.46-114.17-45.43c-1.32-57.86,73.27-88.15,112.73-46.91l9.38-9.45
			c-47.42-49.53-137-13.17-135.42,56.36c-1.6,70.73,90.58,106.44,137.16,54.57C290.73,148.7,281.06,139.55,281.06,139.55z"/>
	</g>
	<g>
		<g>
			<path class="st2" d="M54.25,211.76c-21.27,0.02-30.53,12.05-30.55,33.15c-1.83,30.81,26.28,40.03,50.49,28.52v-9.54
				c-17.96,10.71-41.48,5.88-39.51-18.89c-2.1-24.91,21.58-29.92,39.51-18.98v-9.54C67.99,213.58,61.1,211.74,54.25,211.76z"/>
			<path class="st2" d="M122.23,232.82c-8.48-7.78-24.24-5.9-33.39-1.11v9.44c10.32-7.48,30.4-8.33,27.37,9.49
				c-8.68-4.77-23.91-5.71-29.87,3.51c-3.68,6.15-2.85,17.43,4.09,21.2c9.45,5.02,35.51,6.17,35.8-8.48
				C125.28,259.09,129.1,238.58,122.23,232.82z M113.51,269.87c-28.36,6.27-23.53-23.74,2.7-12.95
				C115.61,259.84,118.1,269.16,113.51,269.87z"/>
			<path class="st2" d="M168.63,252.72c-5.38-3.89-13.3-3.54-18.36-7.61c-6.63-12.78,15.28-9.61,21.06-4.62l-0.1-8.67
				c-15.92-11.1-44.76,2.21-27.99,21.15c5.38,4.03,13.34,3.9,18.6,7.95c2.37,2,1.83,6.04-0.87,7.8c-6.79,4.12-16.21,0.47-22.4-3.57
				v9.54c9.5,4.87,24.42,6.36,32.23-2.6C175.07,266.97,174.69,256.44,168.63,252.72z"/>
			<path class="st2" d="M225.92,235.9c-5.67-10.8-20.86-9.64-30.31-4.27v-23.34H185.5v68.8h10.02l0.1-37.58
				c30.43-14.5,21.06,20.85,22.45,37.58h10.12C227.56,269.22,230,242.47,225.92,235.9z"/>
		</g>
		<path class="st1" d="M242.93,277.1v-64.27c26.81-0.41,53.6-3.41,53.39,32.09C296.53,280.43,269.77,277.53,242.93,277.1z
			 M253.53,268.13c18.43,0.97,32.38-0.79,31.9-23.22c0.47-22.33-13.51-24.23-31.9-23.22V268.13z"/>
		<path class="st1" d="M326.09,278.54c-35.09-0.15-20.32-46.51,13.78-26.89l1.06,6.65c-5.31-3.53-16.32-4.99-21.73-1.54
			c-5.06,3.35-2.93,11.79,2.89,13.05c5.12,0.98,15.57,2.58,16.24-3.51c-0.87-5.37,2.46-24.35-3.08-27.71
			c-6.23-4.43-18.35-2.19-24.29,2.55v-9.44c11.73-6.64,37.9-6.97,37.39,12.05C347.29,264.51,355.39,279.45,326.09,278.54z"/>
		<path class="st1" d="M376.58,278.54c-6.4,0.06-10.57-1.41-15.9-3.85v-9.54c6.19,4.04,15.62,7.69,22.4,3.57
			c2.7-1.77,3.23-5.8,0.87-7.8c-5.26-4.05-13.21-3.91-18.6-7.95c-16.77-18.94,12.09-32.25,27.99-21.15l0.1,8.67
			c-13.63-9.96-31.9-1.02-17.39,6.75c6.24,2.42,14.72,2.93,18.31,9.54C400.24,268.68,388.51,279.61,376.58,278.54z"/>
		<path class="st1" d="M407.61,277.1v-68.8h10.12v27.66l-2.99-2.5c9.54-6.82,26.91-9.47,33.29,2.46c4.11,6.49,1.62,33.42,2.26,41.19
			h-10.12c-1.38-16.81,7.96-52.06-22.45-37.58l-0.1,37.58H407.61z"/>
	</g>
	<path class="st1" d="M238,87.16l-3.97-30.25l-3.15,30.6c-5.93,2.76-5.9,12.28,0.05,14.99l4.14,31.61l3.24-31.43
		C244.94,100.04,244.72,89.52,238,87.16z M234.82,98.74c-4.86,0.07-4.86-7.57,0-7.5C239.68,91.17,239.68,98.81,234.82,98.74z"/>
</g>
</svg>
